{"title":"Steamboat Bill Jr.(1928)MP-4[DaScubaDude]","uid":12352433,"size":846222252,"categoryP":"video","categoryS":"movies","magnet":"?xt=urn:btih:48b2eb3943f2cd20328775397e7c17b31bc3b950&amp;dn=Steamboat+Bill+Jr.%281928%29MP-4%5BDaScubaDude%5D&amp;tr=udp%3A%2F%2Ftracker.openbittorrent.com%3A80&amp;tr=udp%3A%2F%2Fopen.demonii.com%3A1337&amp;tr=udp%3A%2F%2Ftracker.coppersurfer.tk%3A6969&amp;tr=udp%3A%2F%2Fexodus.desync.com%3A6969","seeders":1,"leechers":0,"uploader":"dascuba","files":1,"time":1441442490,"description":"Steamboat Bill, Jr. (1928)\nNot Rated  |  70 min  |  Action, Comedy, Drama  |  20 May 1928 (USA)\n8.0 Your rating:   -/10   Ratings: 8.0/10 from 8,612 users   \nReviews: 61 user | 51 critic\nThe effete son of a cantankerous riverboat captain comes to join his father's crew.\n\nDirectors: Charles Reisner (as Chas. F. Reisner) , Buster Keaton (uncredited)\nWriter: Carl Harbaugh (story)\nStars: Buster Keaton, Tom McGuire, Ernest Torrence\n\nGeneral\nComplete name                       : C:\\Steamboat Bill JrUNTITLED001_Title1.mp4\nFormat                                   : MPEG-4\nFormat profile                           : Base Media\nCodec ID                                 : isom\nFile size                                : 807 MiB\nDuration                                 : 1h 9mn\nOverall bit rate mode                    : Constant\nOverall bit rate                         : 1 634 Kbps\nMovie name                               : UNTITLED001\nWriting application                      : Lavf54.6.100\n\nVideo\nID                                       : 1\nFormat                                   : MPEG-4 Visual\nFormat settings, BVOP                    : No\nFormat settings, QPel                    : No\nFormat settings, GMC                     : No warppoints\nFormat settings, Matrix                  : Default (H.263)\nCodec ID                                 : 20\nDuration                                 : 1h 9mn\nBit rate mode                            : Constant\nBit rate                                 : 1 500 Kbps\nWidth                                    : 720 pixels\nHeight                                   : 540 pixels\nDisplay aspect ratio                     : 4:3\nFrame rate mode                          : Constant\nFrame rate                               : 29.970 fps\nColor space                              : YUV\nChroma subsampling                       : 4:2:0\nBit depth                                : 8 bits\nScan type                                : Progressive\nCompression mode                         : Lossy\nBits/(Pixel*Frame)                       : 0.129\nStream size                              : 741 MiB (92%)\nWriting library                          : Lavc54.23.100\n\nAudio\nID                                       : 2\nFormat                                   : MPEG Audio\nFormat version                           : Version 1\nFormat profile                           : Layer 3\nCodec ID                                 : 6B\nDuration                                 : 1h 9mn\nBit rate mode                            : Constant\nBit rate                                 : 128 Kbps\nChannel(s)                               : 2 channels\nSampling rate                            : 44.1 KHz\nCompression mode                         : Lossy\nStream size                              : 63.2 MiB (8%)","torrent":{"xt":"urn:btih:48b2eb3943f2cd20328775397e7c17b31bc3b950","amp;dn":"Steamboat+Bill+Jr.%281928%29MP-4%5BDaScubaDude%5D","amp;tr":["udp%3A%2F%2Ftracker.openbittorrent.com%3A80","udp%3A%2F%2Fopen.demonii.com%3A1337","udp%3A%2F%2Ftracker.coppersurfer.tk%3A6969","udp%3A%2F%2Fexodus.desync.com%3A6969"],"infoHash":"48b2eb3943f2cd20328775397e7c17b31bc3b950","infoHashBuffer":{"type":"Buffer","data":[72,178,235,57,67,242,205,32,50,135,117,57,126,124,23,179,27,195,185,80]},"announce":[],"urlList":[]}}